<?xml version="1.0" encoding="UTF-8" standalone="no"?>
<!-- Created with Inkscape (http://www.inkscape.org/) -->

<svg
   xmlns:dc="http://purl.org/dc/elements/1.1/"
   xmlns:cc="http://creativecommons.org/ns#"
   xmlns:rdf="http://www.w3.org/1999/02/22-rdf-syntax-ns#"
   xmlns:svg="http://www.w3.org/2000/svg"
   xmlns="http://www.w3.org/2000/svg"
   xmlns:sodipodi="http://sodipodi.sourceforge.net/DTD/sodipodi-0.dtd"
   xmlns:inkscape="http://www.inkscape.org/namespaces/inkscape"
   width="11.288887mm"
   height="8.6619225mm"
   viewBox="0 0 39.999994 30.691851"
   id="svg3385"
   version="1.1"
   inkscape:version="0.91 r13725"
   sodipodi:docname="language.svg">
  <defs
     id="defs3387" />
  <sodipodi:namedview
     id="base"
     pagecolor="#ffffff"
     bordercolor="#666666"
     borderopacity="1.0"
     inkscape:pageopacity="0.0"
     inkscape:pageshadow="2"
     inkscape:zoom="0.35"
     inkscape:cx="173.57142"
     inkscape:cy="158.99218"
     inkscape:document-units="px"
     inkscape:current-layer="layer1"
     showgrid="false"
     fit-margin-top="0"
     fit-margin-left="0"
     fit-margin-right="0"
     fit-margin-bottom="0"
     inkscape:window-width="1366"
     inkscape:window-height="705"
     inkscape:window-x="-8"
     inkscape:window-y="-8"
     inkscape:window-maximized="1" />
  <metadata
     id="metadata3390">
    <rdf:RDF>
      <cc:Work
         rdf:about="">
        <dc:format>image/svg+xml</dc:format>
        <dc:type
           rdf:resource="http://purl.org/dc/dcmitype/StillImage" />
        <dc:title></dc:title>
      </cc:Work>
    </rdf:RDF>
  </metadata>
  <g
     inkscape:label="Layer 1"
     inkscape:groupmode="layer"
     id="layer1"
     transform="translate(-201.42858,-660.66253)">
    <path
       id="path3508"
       d="m 213.9984,670.04983 c -6.83669,-0.134 -12.46303,4.07859 -12.56837,9.40978 -0.036,1.85359 0.59963,3.59899 1.73013,5.09159 1.94716,2.49999 -0.1778,6.80318 -0.1778,6.80318 l 6.27599,-2.70379 c 1.35055,0.428 2.82155,0.678 4.36065,0.7082 6.83668,0.13599 12.46597,-4.08 12.56847,-9.41378 0.1054,-5.32819 -5.35059,-9.76118 -12.18897,-9.89518 m 25.69676,5.11559 0,0 c 1.13173,-1.4934 1.76943,-3.23759 1.73173,-5.09139 -0.1042,-5.33099 -5.73498,-9.54678 -12.57173,-9.40818 -5.72879,0.112 -10.49027,3.24519 -11.81801,7.39318 2.67533,0.5046 5.13063,1.6008 7.10942,3.207 2.8548,2.31859 4.39509,5.40958 4.33925,8.70238 0.2488,0 0.4989,0 0.74914,0 1.54186,-0.024 3.00975,-0.2738 4.36335,-0.705 l 6.27445,2.70439 c 0,0 -2.1251,-4.30199 -0.1776,-6.80238"
       inkscape:connector-curvature="0" />
  </g>
</svg>
