<?xml version="1.0" encoding="UTF-8" standalone="no"?>
<!-- Created with Inkscape (http://www.inkscape.org/) -->

<svg
   xmlns:dc="http://purl.org/dc/elements/1.1/"
   xmlns:cc="http://creativecommons.org/ns#"
   xmlns:rdf="http://www.w3.org/1999/02/22-rdf-syntax-ns#"
   xmlns:svg="http://www.w3.org/2000/svg"
   xmlns="http://www.w3.org/2000/svg"
   xmlns:sodipodi="http://sodipodi.sourceforge.net/DTD/sodipodi-0.dtd"
   xmlns:inkscape="http://www.inkscape.org/namespaces/inkscape"
   width="5.6444573mm"
   height="4.3309712mm"
   viewBox="0 0 20.000046 15.345961"
   id="svg5492"
   version="1.1"
   inkscape:version="0.91 r13725"
   sodipodi:docname="language.svg">
  <defs
     id="defs5494" />
  <sodipodi:namedview
     id="base"
     pagecolor="#ffffff"
     bordercolor="#666666"
     borderopacity="1.0"
     inkscape:pageopacity="0.0"
     inkscape:pageshadow="2"
     inkscape:zoom="34.927757"
     inkscape:cx="5.7770252"
     inkscape:cy="7.6729816"
     inkscape:document-units="px"
     inkscape:current-layer="layer1"
     showgrid="false"
     fit-margin-top="0"
     fit-margin-left="0"
     fit-margin-right="0"
     fit-margin-bottom="0"
     inkscape:window-width="1366"
     inkscape:window-height="705"
     inkscape:window-x="-8"
     inkscape:window-y="-8"
     inkscape:window-maximized="1" />
  <metadata
     id="metadata5497">
    <rdf:RDF>
      <cc:Work
         rdf:about="">
        <dc:format>image/svg+xml</dc:format>
        <dc:type
           rdf:resource="http://purl.org/dc/dcmitype/StillImage" />
        <dc:title />
      </cc:Work>
    </rdf:RDF>
  </metadata>
  <g
     inkscape:label="Layer 1"
     inkscape:groupmode="layer"
     id="layer1"
     transform="translate(402.85717,-394.7553)">
    <path
       inkscape:connector-curvature="0"
       d="m -396.57224,399.44896 c -3.41835,-0.067 -6.23153,2.0393 -6.2842,4.7049 -0.018,0.9268 0.29982,1.7995 0.86507,2.5458 0.97358,1.25 -0.0889,3.4016 -0.0889,3.4016 l 3.13801,-1.3519 c 0.67527,0.214 1.41077,0.339 2.18032,0.3541 3.41835,0.068 6.233,-2.04 6.28424,-4.7069 0.0527,-2.6641 -2.67529,-4.8806 -6.09449,-4.9476 m 12.84841,2.5578 0,0 c 0.56586,-0.7467 0.88471,-1.6188 0.86587,-2.5457 -0.0521,-2.6655 -2.86751,-4.7734 -6.28588,-4.7041 -2.86441,0.056 -5.24515,1.6226 -5.90902,3.6966 1.33767,0.2523 2.56532,0.8004 3.55471,1.6035 1.4274,1.1593 2.19755,2.7048 2.16964,4.3512 0.1244,0 0.24944,0 0.37457,0 0.77093,-0.012 1.50487,-0.1369 2.18168,-0.3525 l 3.13722,1.3522 c 0,0 -1.06254,-2.151 -0.0888,-3.4012"
       id="path3516"
       style="fill:#929292;fill-opacity:1" />
  </g>
</svg>
