<?xml version="1.0" encoding="UTF-8" standalone="no"?>
<!-- Created with Inkscape (http://www.inkscape.org/) -->

<svg
   xmlns:dc="http://purl.org/dc/elements/1.1/"
   xmlns:cc="http://creativecommons.org/ns#"
   xmlns:rdf="http://www.w3.org/1999/02/22-rdf-syntax-ns#"
   xmlns:svg="http://www.w3.org/2000/svg"
   xmlns="http://www.w3.org/2000/svg"
   xmlns:sodipodi="http://sodipodi.sourceforge.net/DTD/sodipodi-0.dtd"
   xmlns:inkscape="http://www.inkscape.org/namespaces/inkscape"
   width="5.6444445mm"
   height="8.9071369mm"
   viewBox="0 0 20 31.560721"
   id="svg5492"
   version="1.1"
   inkscape:version="0.91 r13725"
   sodipodi:docname="level.svg">
  <defs
     id="defs5494" />
  <sodipodi:namedview
     id="base"
     pagecolor="#ffffff"
     bordercolor="#666666"
     borderopacity="1.0"
     inkscape:pageopacity="0.0"
     inkscape:pageshadow="2"
     inkscape:zoom="0.35"
     inkscape:cx="-193.57143"
     inkscape:cy="-129.93392"
     inkscape:document-units="px"
     inkscape:current-layer="layer1"
     showgrid="false"
     fit-margin-top="0"
     fit-margin-left="0"
     fit-margin-right="0"
     fit-margin-bottom="0"
     inkscape:window-width="1366"
     inkscape:window-height="705"
     inkscape:window-x="-8"
     inkscape:window-y="-8"
     inkscape:window-maximized="1" />
  <metadata
     id="metadata5497">
    <rdf:RDF>
      <cc:Work
         rdf:about="">
        <dc:format>image/svg+xml</dc:format>
        <dc:type
           rdf:resource="http://purl.org/dc/dcmitype/StillImage" />
        <dc:title></dc:title>
      </cc:Work>
    </rdf:RDF>
  </metadata>
  <g
     inkscape:label="Layer 1"
     inkscape:groupmode="layer"
     id="layer1"
     transform="translate(-147.14286,-370.86756)">
    <path
       id="path3445"
       d="m 165.77182,381.12701 1.37085,-2.2832 -2.22441,-1.4624 0.24367,-2.6505 -2.63871,-0.35068 -0.93036,-2.49692 -2.52825,0.82982 -1.92169,-1.84557 -1.91861,1.8455 -2.5317,-0.82988 -0.92907,2.49693 -2.63994,0.3508 0.24614,2.6505 -2.22688,1.4624 1.37227,2.2832 -1.37227,2.28102 2.22688,1.46098 -0.24614,2.65282 2.63994,0.34945 0.92907,2.4947 2.5317,-0.8273 1.91861,1.84545 1.92169,-1.84545 2.52843,0.8273 0.93024,-2.4947 2.63871,-0.34945 -0.24348,-2.65282 2.22435,-1.46098 -1.37104,-2.28102 z m -6.233,10.4921 -1.12712,1.08515 -1.26884,1.2197 -1.26909,-1.2197 -1.12589,-1.08515 -1.48631,0.4876 -1.49593,0.48967 0,9.8319 5.27982,-3.31837 5.4753,3.31837 0,-9.8295 -1.49704,-0.49207 -1.4849,-0.4876 z"
       inkscape:connector-curvature="0" />
  </g>
</svg>
