<?xml version="1.0" encoding="UTF-8" standalone="no"?>
<!-- Created with Inkscape (http://www.inkscape.org/) -->

<svg
   xmlns:dc="http://purl.org/dc/elements/1.1/"
   xmlns:cc="http://creativecommons.org/ns#"
   xmlns:rdf="http://www.w3.org/1999/02/22-rdf-syntax-ns#"
   xmlns:svg="http://www.w3.org/2000/svg"
   xmlns="http://www.w3.org/2000/svg"
   xmlns:sodipodi="http://sodipodi.sourceforge.net/DTD/sodipodi-0.dtd"
   xmlns:inkscape="http://www.inkscape.org/namespaces/inkscape"
   width="11.288889mm"
   height="10.451674mm"
   viewBox="0 0 40 37.033492"
   id="svg3385"
   version="1.1"
   inkscape:version="0.91 r13725"
   sodipodi:docname="tags.svg">
  <defs
     id="defs3387" />
  <sodipodi:namedview
     id="base"
     pagecolor="#ffffff"
     bordercolor="#666666"
     borderopacity="1.0"
     inkscape:pageopacity="0.0"
     inkscape:pageshadow="2"
     inkscape:zoom="0.35"
     inkscape:cx="312.14286"
     inkscape:cy="-8.6807974"
     inkscape:document-units="px"
     inkscape:current-layer="layer1"
     showgrid="false"
     fit-margin-top="0"
     fit-margin-left="0"
     fit-margin-right="0"
     fit-margin-bottom="0"
     inkscape:window-width="1366"
     inkscape:window-height="705"
     inkscape:window-x="-8"
     inkscape:window-y="-8"
     inkscape:window-maximized="1" />
  <metadata
     id="metadata3390">
    <rdf:RDF>
      <cc:Work
         rdf:about="">
        <dc:format>image/svg+xml</dc:format>
        <dc:type
           rdf:resource="http://purl.org/dc/dcmitype/StillImage" />
        <dc:title></dc:title>
      </cc:Work>
    </rdf:RDF>
  </metadata>
  <g
     inkscape:label="Layer 1"
     inkscape:groupmode="layer"
     id="layer1"
     transform="translate(-62.857144,-486.64791)">
    <g
       id="Page-1"
       style="fill:none;fill-rule:evenodd;stroke:none;stroke-width:1"
       transform="matrix(1.4830906,0,0,1.4830906,58.407872,480.71555)">
      <g
         id="icon-147-tags"
         style="fill:#929292">
        <path
           id="tags"
           d="M 4.999615,5 C 3.8952581,5 3,5.8874333 3,6.999615 L 3,15 16.380903,28.380903 c 0.716414,0.716414 1.837864,0.779806 2.619798,0.190859 L 5,14.5 5,5.0067841 C 5,5.004521 5.0000075,5.0022596 5.0000225,5 l -4.075e-4,0 0,0 z M 16,4 7.999615,4 C 6.8952581,4 6,4.8874333 6,5.999615 L 6,14 19.380903,27.380903 c 0.783739,0.783739 2.052216,0.785954 2.830631,0.0075 l 7.176907,-7.176907 c 0.779576,-0.779575 0.77561,-2.047483 -0.0075,-2.830631 L 16,4 16,4 Z m -4.5,7 C 12.328427,11 13,10.328427 13,9.5 13,8.6715728 12.328427,8 11.5,8 10.671573,8 10,8.6715728 10,9.5 c 0,0.828427 0.671573,1.5 1.5,1.5 l 0,0 z"
           inkscape:connector-curvature="0" />
      </g>
    </g>
  </g>
</svg>
