<?xml version="1.0" encoding="UTF-8" standalone="no"?>
<svg
   xmlns:dc="http://purl.org/dc/elements/1.1/"
   xmlns:cc="http://creativecommons.org/ns#"
   xmlns:rdf="http://www.w3.org/1999/02/22-rdf-syntax-ns#"
   xmlns:svg="http://www.w3.org/2000/svg"
   xmlns="http://www.w3.org/2000/svg"
   viewBox="0 0 532.47998 150.93333"
   height="150.93333"
   width="532.47998"
   xml:space="preserve"
   id="svg2"
   version="1.1"><metadata
     id="metadata8"><rdf:RDF><cc:Work
         rdf:about=""><dc:format>image/svg+xml</dc:format><dc:type
           rdf:resource="http://purl.org/dc/dcmitype/StillImage" /></cc:Work></rdf:RDF></metadata><defs
     id="defs6"><clipPath
       id="clipPath20"
       clipPathUnits="userSpaceOnUse"><path
         id="path18"
         d="M 0,1131.96 V 0 h 3993.57 v 1131.96 z" /></clipPath></defs><g
     transform="matrix(1.3333333,0,0,-1.3333333,0,150.93333)"
     id="g10"><g
       transform="scale(0.1)"
       id="g12"><g
         id="g14"><g
           clip-path="url(#clipPath20)"
           id="g16"><path
             id="path22"
             style="fill:#515052;fill-opacity:1;fill-rule:evenodd;stroke:none"
             d="m 362.684,897.207 c 0,29.707 24.062,53.832 53.8,53.832 29.793,0 53.868,-24.125 53.868,-53.832 0,-29.754 -24.075,-53.852 -53.868,-53.852 -29.738,0 -53.8,24.098 -53.8,53.852 z m 364.582,145.433 c 0,21.74 17.695,39.35 39.382,39.35 21.743,0 39.387,-17.61 39.387,-39.35 0,-21.72 -17.644,-39.34 -39.387,-39.34 -21.687,0 -39.382,17.62 -39.382,39.34 z M 773.242,98.7695 c 0,23.3715 18.938,42.3635 42.317,42.3635 23.359,0 42.3,-18.992 42.3,-42.3635 0,-23.3281 -18.941,-42.3007 -42.3,-42.3007 -23.379,0 -42.317,18.9726 -42.317,42.3007 z M 964.148,286.246 c 0,32.051 26.008,58.024 58.042,58.024 32.08,0 58.06,-25.973 58.06,-58.024 0,-32.094 -25.98,-58.004 -58.06,-58.004 -32.034,0 -58.042,25.91 -58.042,58.004 z m -135.808,6.832 c 0,21.035 17.07,38.133 38.137,38.133 21.062,0 38.113,-17.098 38.113,-38.133 0,-21.09 -17.051,-38.172 -38.113,-38.172 -21.067,0 -38.137,17.082 -38.137,38.172 z m 46.113,264.043 c 0,20.84 16.863,37.731 37.727,37.731 20.816,0 37.691,-16.891 37.691,-37.731 0,-20.82 -16.875,-37.707 -37.691,-37.707 -20.864,0 -37.727,16.887 -37.727,37.707 z m -373.476,2.129 c 0,18.156 14.726,32.879 32.871,32.879 18.117,0 32.832,-14.723 32.832,-32.879 0,-18.117 -14.715,-32.863 -32.832,-32.863 -18.145,0 -32.871,14.746 -32.871,32.863 z M 281.855,262.633 c 0,28.023 22.696,50.691 50.696,50.691 27.957,0 50.613,-22.668 50.613,-50.691 0,-27.903 -22.656,-50.656 -50.613,-50.656 -28,0 -50.696,22.753 -50.696,50.656 z m 138.997,-19.301 c 0,25.664 20.769,46.453 46.445,46.453 25.633,0 46.504,-20.789 46.504,-46.453 0,-25.664 -20.871,-46.5 -46.504,-46.5 -25.676,0 -46.445,20.836 -46.445,46.5 z M 542.227,135.016 c 0,25.668 20.8,46.457 46.433,46.457 25.656,0 46.516,-20.789 46.516,-46.457 0,-25.664 -20.86,-46.5043 -46.516,-46.5043 -25.633,0 -46.433,20.8403 -46.433,46.5043 z M 449.766,46.4805 c 0,25.6679 20.839,46.4687 46.464,46.4687 25.75,0 46.543,-20.8008 46.543,-46.4687 C 542.773,20.8203 521.98,0 496.23,0 470.605,0 449.766,20.8203 449.766,46.4805 Z m 180.925,-5.6993 c 0,19.129 15.532,34.6602 34.707,34.6602 19.122,0 34.661,-15.5312 34.661,-34.6602 0,-19.1914 -15.539,-34.65229 -34.661,-34.65229 -19.175,0 -34.707,15.46089 -34.707,34.65229 z M 886.523,158.648 c 0,13.043 10.567,23.618 23.606,23.618 13.074,0 23.68,-10.575 23.68,-23.618 0,-13.105 -10.606,-23.632 -23.68,-23.632 -13.039,0 -23.606,10.527 -23.606,23.632 z m 141.917,237.399 c 0,13.086 10.57,23.691 23.64,23.691 13.05,0 23.69,-10.605 23.69,-23.691 0,-13.098 -10.64,-23.68 -23.69,-23.68 -13.07,0 -23.64,10.582 -23.64,23.68 z m -841.213,77.039 c 0,13.125 10.546,23.684 23.625,23.684 13.113,0 23.652,-10.559 23.652,-23.684 0,-12.984 -10.539,-23.559 -23.652,-23.559 -13.079,0 -23.625,10.575 -23.625,23.559 z M 495.535,335.137 c 0,13.039 10.527,23.683 23.645,23.683 13.105,0 23.664,-10.644 23.664,-23.683 0,-13.055 -10.559,-23.657 -23.664,-23.657 -13.118,0 -23.645,10.602 -23.645,23.657 z M 194.004,159.32 c 0,15.641 12.656,28.27 28.23,28.27 15.637,0 28.235,-12.629 28.235,-28.27 0,-15.586 -12.598,-28.211 -28.235,-28.211 -15.574,0 -28.23,12.625 -28.23,28.211 z m -89.363,116.106 c 0,26.949 21.836,48.844 48.894,48.844 26.953,0 48.809,-21.895 48.809,-48.844 0,-27.016 -21.856,-48.836 -48.809,-48.836 -27.058,0 -48.894,21.82 -48.894,48.836 z m 177.625,265.152 c 0,20.414 16.589,37.016 37.058,37.016 20.442,0 37.004,-16.602 37.004,-37.016 0,-20.426 -16.562,-37.031 -37.004,-37.031 -20.469,0 -37.058,16.605 -37.058,37.031 z m -8.914,-131.687 c 0,20.484 16.589,37.027 37.019,37.027 20.481,0 36.981,-16.543 36.981,-37.027 0,-20.411 -16.5,-37.032 -36.981,-37.032 -20.43,0 -37.019,16.621 -37.019,37.032 z M 44.2461,723.926 c 0,18.801 15.2344,34.019 33.9766,34.019 18.75,0 33.9653,-15.218 33.9653,-34.019 0,-18.742 -15.2153,-33.914 -33.9653,-33.914 -18.7422,0 -33.9766,15.172 -33.9766,33.914 z M 0,577.016 c 0,34.582 28.0352,62.586 62.5898,62.586 34.5977,0 62.6522,-28.004 62.6522,-62.586 0,-34.586 -28.0545,-62.649 -62.6522,-62.649 C 28.0352,514.367 0,542.43 0,577.016 Z M 40.3438,406.305 c 0,27.289 22.0507,49.316 49.2968,49.316 27.2224,0 49.2854,-22.027 49.2854,-49.316 0,-27.176 -22.063,-49.196 -49.2854,-49.196 -27.2461,0 -49.2968,22.02 -49.2968,49.196 z M 164.211,606.797 c 0,22.137 17.984,40.07 40.066,40.07 22.149,0 40.039,-17.933 40.039,-40.07 0,-22.109 -17.89,-40.07 -40.039,-40.07 -22.082,0 -40.066,17.961 -40.066,40.07 z m -0.82,139.691 c 0,14.762 11.953,26.715 26.687,26.715 14.805,0 26.797,-11.953 26.797,-26.715 0,-14.773 -11.992,-26.726 -26.797,-26.726 -14.734,0 -26.687,11.953 -26.687,26.726 z m -74.8441,83.235 c 0,14.781 11.9731,26.738 26.6801,26.738 14.773,0 26.707,-11.957 26.707,-26.738 0,-14.762 -11.934,-26.758 -26.707,-26.758 -14.707,0 -26.6801,11.996 -26.6801,26.758 z m 53.3871,103.804 c 0,29.493 23.918,53.442 53.457,53.442 29.531,0 53.425,-23.949 53.425,-53.442 0,-29.523 -23.894,-53.441 -53.425,-53.441 -29.539,0 -53.457,23.918 -53.457,53.441 z m 77.871,-96.015 c 0,17.074 13.781,30.859 30.871,30.859 17.039,0 30.906,-13.785 30.906,-30.859 0,-17.117 -13.867,-30.918 -30.906,-30.918 -17.09,0 -30.871,13.801 -30.871,30.918 z m 35.117,177.298 c 0,20.44 16.582,37 37.058,37 20.461,0 37.024,-16.56 37.024,-37 0,-20.462 -16.563,-36.982 -37.024,-36.982 -20.476,0 -37.058,16.52 -37.058,36.982 z m 115.293,51.51 c 0,15.82 12.805,28.6 28.68,28.6 15.824,0 28.664,-12.78 28.664,-28.6 0,-15.88 -12.84,-28.72 -28.664,-28.72 -15.875,0 -28.68,12.84 -28.68,28.72 z m 110.273,7.7 c 0,29.51 23.938,53.41 53.504,53.41 29.453,0 53.391,-23.9 53.391,-53.41 0,-29.52 -23.938,-53.47 -53.391,-53.47 -29.566,0 -53.504,23.95 -53.504,53.47 z m 130.364,14.73 c 0,12.24 9.878,22.18 22.156,22.18 12.187,0 22.109,-9.94 22.109,-22.18 0,-12.17 -9.922,-22.07 -22.109,-22.07 -12.278,0 -22.156,9.9 -22.156,22.07 z M 525.793,950.633 c 0,18.484 15.008,33.543 33.555,33.543 18.504,0 33.496,-15.059 33.496,-33.543 0,-18.531 -14.992,-33.582 -33.496,-33.582 -18.547,0 -33.555,15.051 -33.555,33.582 z M 640.066,810.191 c 0,29.516 23.977,53.411 53.442,53.411 29.519,0 53.496,-23.895 53.496,-53.411 0,-29.543 -23.977,-53.457 -53.496,-53.457 -29.465,0 -53.442,23.914 -53.442,53.457 z m 198.45,190.449 c 0,15.62 12.695,28.3 28.222,28.3 15.645,0 28.242,-12.68 28.242,-28.3 0,-15.609 -12.597,-28.245 -28.242,-28.245 -15.527,0 -28.222,12.636 -28.222,28.245 z m 94.461,-106.105 c 0,23.227 18.808,42.078 42.003,42.078 23.223,0 42.05,-18.851 42.05,-42.078 0,-23.187 -18.827,-41.996 -42.05,-41.996 -23.195,0 -42.003,18.809 -42.003,41.996 z M 816.895,813.172 c 0,29.246 23.757,52.984 53.054,52.984 29.278,0 53.078,-23.738 53.078,-52.984 0,-29.289 -23.8,-53.051 -53.078,-53.051 -29.297,0 -53.054,23.762 -53.054,53.051 z M 605.82,637.016 c 0,24.894 20.188,45.07 45.149,45.07 24.851,0 45.054,-20.176 45.054,-45.07 0,-24.879 -20.203,-45.082 -45.054,-45.082 -24.961,0 -45.149,20.203 -45.149,45.082 z m 179.903,-69.762 c 0,13.672 11.054,24.769 24.785,24.769 13.691,0 24.719,-11.097 24.719,-24.769 0,-13.66 -11.028,-24.734 -24.719,-24.734 -13.731,0 -24.785,11.074 -24.785,24.734 z m 111.843,127.105 c 0,18.371 14.895,33.211 33.286,33.211 18.296,0 33.281,-14.84 33.281,-33.211 0,-18.39 -14.985,-33.257 -33.281,-33.257 -18.391,0 -33.286,14.867 -33.286,33.257 z m 139.244,-30.382 c 0,18.953 15.36,34.371 34.42,34.371 18.95,0 34.3,-15.418 34.3,-34.371 0,-18.942 -15.35,-34.356 -34.3,-34.356 -19.06,0 -34.42,15.414 -34.42,34.356 z m -31.63,127.636 c 0,26.121 21.14,47.325 47.27,47.325 26.12,0 47.34,-21.204 47.34,-47.325 0,-26.109 -21.22,-47.347 -47.34,-47.347 -26.13,0 -47.27,21.238 -47.27,47.347 z m 4.88,-255.968 c 0,33.281 27.01,60.25 60.34,60.25 33.22,0 60.19,-26.969 60.19,-60.25 0,-33.243 -26.97,-60.254 -60.19,-60.254 -33.33,0 -60.34,27.011 -60.34,60.254 z M 878.816,422.801 c 0,27.207 21.954,49.23 49.204,49.23 27.195,0 49.253,-22.023 49.253,-49.23 0,-27.235 -22.058,-49.254 -49.253,-49.254 -27.25,0 -49.204,22.019 -49.204,49.254 z m -484.148,55.453 c 0,31.43 25.5,56.937 56.953,56.937 31.399,0 56.887,-25.507 56.887,-56.937 0,-31.422 -25.488,-56.906 -56.887,-56.906 -31.453,0 -56.953,25.484 -56.953,56.906 z m 115.43,370.18 c 0,18.144 14.726,32.839 32.84,32.839 18.195,0 32.863,-14.695 32.863,-32.839 0,-18.102 -14.668,-32.825 -32.863,-32.825 -18.114,0 -32.84,14.723 -32.84,32.825 z M 494.559,719.762 c 0,22.785 18.507,41.218 41.222,41.218 22.727,0 41.199,-18.433 41.199,-41.218 0,-22.797 -18.472,-41.215 -41.199,-41.215 -22.715,0 -41.222,18.418 -41.222,41.215 z M 679.934,200.238 c 0,29.879 24.238,54.121 54.16,54.121 29.89,0 54.176,-24.242 54.176,-54.121 0,-29.894 -24.286,-54.148 -54.176,-54.148 -29.922,0 -54.16,24.254 -54.16,54.148 z m -124.141,54.809 c 0,22.98 18.621,41.613 41.609,41.613 22.989,0 41.68,-18.633 41.68,-41.613 0,-22.949 -18.691,-41.574 -41.68,-41.574 -22.988,0 -41.609,18.625 -41.609,41.574 z M 307.02,103.199 c 0,27.262 22.011,49.332 49.203,49.332 27.222,0 49.273,-22.07 49.273,-49.332 0,-27.1482 -22.051,-49.1795 -49.273,-49.1795 -27.192,0 -49.203,22.0313 -49.203,49.1795 z m 333.332,879.867 c 0,21.644 17.519,39.234 39.199,39.234 21.679,0 39.289,-17.59 39.289,-39.234 0,-21.703 -17.61,-39.265 -39.289,-39.265 -21.68,0 -39.199,17.562 -39.199,39.265 z m 141.882,-61.171 c 0,15.589 12.688,28.246 28.301,28.246 15.551,0 28.235,-12.657 28.235,-28.246 0,-15.637 -12.684,-28.227 -28.235,-28.227 -15.613,0 -28.301,12.59 -28.301,28.227" /><path
             id="path24"
             style="fill:#f04f1c;fill-opacity:1;fill-rule:evenodd;stroke:none"
             d="m 592.266,439.332 c 0,62.477 50.683,113.086 113.183,113.086 62.449,0 113.074,-50.609 113.074,-113.086 0,-62.488 -50.625,-113.191 -113.074,-113.191 -62.5,0 -113.183,50.703 -113.183,113.191 z m 144.519,248.727 c 0,29.164 23.598,52.812 52.832,52.812 29.184,0 52.856,-23.648 52.856,-52.812 0,-29.141 -23.672,-52.852 -52.856,-52.852 -29.234,0 -52.832,23.711 -52.832,52.852 z m -448.621,27.129 c 0,47.519 38.535,86.093 86.047,86.093 47.516,0 86.094,-38.574 86.094,-86.093 0,-47.547 -38.578,-86.075 -86.094,-86.075 -47.512,0 -86.047,38.528 -86.047,86.075" /><path
             id="path26"
             style="fill:#515153;fill-opacity:1;fill-rule:nonzero;stroke:none"
             d="m 2201.84,633.938 h -76.39 v 18.621 c 0,49.379 -37.25,49.379 -114.59,49.379 -92.21,0 -136.9,0.906 -136.9,-59.563 0,-87.617 24.23,-81.039 100.64,-84.844 125.7,-7.41 240.29,12.16 240.29,-147.09 0,-137.918 -95,-143.492 -204.03,-143.492 -106.12,0 -217.02,5.574 -217.02,114.567 v 45.656 h 76.38 v -38.234 c 0,-46.551 28.91,-56.793 140.64,-56.793 50.32,0 127.69,-11.204 127.69,75.414 0,91.308 -38.25,74.55 -127.69,80.089 -106.12,7.469 -213.29,-3.687 -213.29,135.118 0,141.589 81.05,144.386 213.29,144.386 85.72,0 190.98,-3.718 190.98,-114.593 v -18.621" /><path
             id="path28"
             style="fill:#515153;fill-opacity:1;fill-rule:nonzero;stroke:none"
             d="M 2725.04,449.516 V 422.48 c 0,-137.859 -91.35,-155.531 -207.81,-155.531 -203.04,0 -216.99,78.203 -216.99,259.887 0,159.258 27.95,240.316 204.94,240.316 118.29,0 211.44,-13.062 211.44,-151.875 v -12.988 h -73.59 v 14.891 c 0,88.484 -48.48,90.351 -133.15,90.351 -130.47,0 -133.29,-44.746 -133.29,-201.179 0,-137.875 5.6,-179.844 149.08,-179.844 92.2,0 125.72,10.301 125.72,98.801 v 24.207 h 73.65" /><path
             id="path30"
             style="fill:#515153;fill-opacity:1;fill-rule:nonzero;stroke:none"
             d="m 3164.41,417.777 c 0,92.262 -54.96,91.34 -148.12,91.34 -87.51,0 -122.9,-5.609 -122.9,-84.785 0,-93.117 38.2,-97.824 122.9,-97.824 73.59,0 148.12,1.89 148.12,91.269 z m 1.88,-145.254 v 50.293 l -1.88,1.864 c -27.92,-55.868 -99.63,-57.731 -161.1,-57.731 -109.92,0 -186.32,20.496 -186.32,148.074 0,135.098 69.85,153.68 190.98,153.68 48.41,0 143.45,-4.648 153.68,-49.324 h 4.64 v 90.328 c 0,89.438 -47.5,97.824 -130.39,97.824 -57.77,0 -128.51,0 -127.64,-67.078 v -16.758 h -76.39 v 10.243 c 0,125.75 86.66,134.14 195.67,133.214 122.94,0.926 213.3,-12.136 212.36,-161.14 V 272.523 h -73.61" /><path
             id="path32"
             style="fill:#515153;fill-opacity:1;fill-rule:nonzero;stroke:none"
             d="m 3367.1,272.523 h 73.6094 V 941.711 H 3367.1 Z" /><path
             id="path34"
             style="fill:#515153;fill-opacity:1;fill-rule:nonzero;stroke:none"
             d="m 3905.48,560.348 c -3.67,138.797 -20.47,147.183 -132.25,147.183 -133.21,0 -137.86,-34.453 -143.37,-147.183 z m 76.43,-139.711 V 402.93 c 0,-129.461 -99.67,-135.981 -208.68,-135.981 -190.88,0 -219.81,63.348 -219.81,249.617 0,203.094 44.72,250.586 219.81,250.586 158.42,0 208.68,-36.386 208.68,-217.031 v -49.363 h -352.05 c 0,-154.61 11.15,-174.25 143.37,-174.25 100.58,0 133.24,6.594 133.24,75.469 v 18.66 h 75.44" /><path
             id="path36"
             style="fill:#f04f1c;fill-opacity:1;fill-rule:nonzero;stroke:none"
             d="m 1638.7,524.254 c 43.77,19.836 47.58,67.637 47.58,111.18 0,131.929 -78.31,132.449 -177.49,132.984 l -2.57,0.051 c -109.73,0 -221.74,-2.989 -221.74,-135.035 v -17.426 h 72.08 v 17.156 c 2.32,67.828 54.43,69.609 142.58,69.609 111.88,0 115.08,-6.539 115.08,-76.835 0,-68.497 -16.74,-68.75 -79.21,-69.731 l -74.06,-0.156 v -65.739 h 68.74 c 66.49,0 94.03,0 94.03,-71.179 0,-80.582 -7.69,-88.016 -91.75,-88.016 -9.38,0 -19.57,0.156 -30.76,0.379 -103.21,1.883 -150.95,0.109 -150.95,66.117 v 29.52 h -72.09 v -29.387 c -0.76,-45.484 8.97,-77.922 29.91,-99.211 29.91,-30.449 123.63,-32.82 193.07,-32.82 h 22.03 c 107.05,0 172.65,7.117 172.65,147.707 0,54.621 -9.84,94.586 -57.13,110.832" /></g></g></g></g></svg>