<?xml version="1.0" encoding="utf-8"?>
<!-- Generator: Adobe Illustrator 19.2.1, SVG Export Plug-In . SVG Version: 6.00 Build 0)  -->
<svg version="1.1" id="Lager_1" xmlns="http://www.w3.org/2000/svg" xmlns:xlink="http://www.w3.org/1999/xlink" x="0px" y="0px"
	 width="113.4px" height="25.5px" viewBox="0 0 113.4 25.5" style="enable-background:new 0 0 113.4 25.5;" xml:space="preserve">
<style type="text/css">
	.st0{fill:#455985;}
	.st1{fill:#FFFFFF;}
</style>
<rect class="st0" width="25.5" height="25.5"/>
<path d="M32.6,9.8l1.8-0.7c0.4,1,1.4,1.6,2.6,1.6c1.1,0,2.1-0.4,2.1-1.4c0-0.8-0.7-1.2-1.5-1.4l-1.8-0.4c-1.4-0.4-2.6-1-2.6-2.9
	c0-2,1.8-3.2,3.9-3.2c1.8,0,3.1,0.6,3.8,2.2l-1.7,0.7C38.9,3.3,38,3,37,3c-0.9,0-1.7,0.4-1.7,1.4c0,0.8,0.7,1.1,1.6,1.3l1.9,0.5
	c1.3,0.3,2.5,1.1,2.5,3c0,2-1.8,3.3-4.2,3.3C35,12.5,33.2,11.7,32.6,9.8"/>
<path d="M42.4,8.8V5.3c0-2.6,2-4,4.3-4c2.1,0,4.1,1.2,4.1,3.6v0.3H49V5.1c0-1.4-1.2-2-2.2-2c-1,0-2.3,0.5-2.3,2.1v3.5
	c0,1.3,1.1,2.1,2.4,2.1c1,0,2.1-0.5,2.1-2V8.6h1.9v0.3c0,2.4-2,3.6-4.1,3.6C44.5,12.5,42.4,11.2,42.4,8.8"/>
<polygon points="52.6,1.5 54.6,1.5 54.6,5.9 58.9,5.9 58.9,1.5 61,1.5 61,12.3 58.9,12.3 58.9,7.7 54.6,7.7 54.6,12.3 52.6,12.3 "/>
<rect x="63.4" y="1.5" width="2" height="10.9"/>
<g>
	<path d="M72.3,10.6c1.1,0,1.8-0.5,1.8-1.5c0-1-0.6-1.4-1.8-1.4h-2.6v3H72.3z M72.2,5.9c1,0,1.6-0.5,1.6-1.4c0-0.9-0.7-1.3-1.7-1.3
		h-2.3v2.7H72.2z M67.8,1.5h4.7c2.1,0,3.4,0.9,3.4,2.8c0,1-0.4,1.8-1.5,2.3v0c1.2,0.3,1.9,1.4,1.9,2.6c0,2-1.6,3.1-3.4,3.1h-4.9V1.5
		z"/>
	<path d="M76.9,9.8l1.8-0.7c0.4,1,1.4,1.6,2.6,1.6c1.1,0,2.1-0.4,2.1-1.4c0-0.8-0.7-1.2-1.5-1.4l-1.8-0.4c-1.4-0.4-2.6-1-2.6-2.9
		c0-2,1.8-3.2,3.9-3.2c1.8,0,3.1,0.6,3.8,2.2l-1.7,0.7C83.1,3.3,82.3,3,81.3,3c-0.9,0-1.7,0.4-1.7,1.4c0,0.8,0.7,1.1,1.6,1.3L83,6.2
		c1.3,0.3,2.5,1.1,2.5,3c0,2-1.8,3.3-4.2,3.3C79.3,12.5,77.5,11.7,76.9,9.8"/>
</g>
<polygon points="89.3,3.2 86.2,3.2 86.2,1.5 94.5,1.5 94.5,3.2 91.3,3.2 91.3,12.3 89.3,12.3 "/>
<polygon points="95.7,1.5 103.2,1.5 103.2,3.3 97.7,3.3 97.7,5.9 102.6,5.9 102.6,7.7 97.7,7.7 97.7,10.6 103.3,10.6 103.3,12.3 
	95.7,12.3 "/>
<g>
	<path d="M109,10.6c1,0,2.3-0.5,2.3-2.1V5.3c0-1.3-1.1-2.1-2.4-2.1h-2.1v7.3H109z M104.9,1.5h4.2c2.4,0,4.3,1.5,4.3,4v2.9
		c0,2.6-2.1,4-4.3,4h-4.3V1.5z"/>
	<path class="st1" d="M11,22.3c-4,0-5.3-2.8-5.3-4.6c0-1.8,1-2.8,2.3-2.8c1.3,0,2.5,0.8,2.5,2.8h5.7C15.9,20.7,13.6,22.3,11,22.3
		 M22.4,16.6c0.1-0.4,0.1-0.8,0.1-1.2c0-1.9-0.9-4.5-1.9-6.6l-0.8-1.7c-0.6-1.2-1.1-2.1-1.1-3.1c0-0.7,0.4-1.2,1.1-1.2
		c0.9,0,1.2,0.6,1.2,2h1.4V2.3c-0.9-0.3-1.7-0.5-3.1-0.5c-3.3,0-6.2,1.4-6.2,5.1c0,3.2,2.9,6.2,3.2,9.7h-1.9c-0.4-4-3.8-4.4-4.8-4.4
		c-3.1,0-5.3,2.1-5.3,5.1c0,3.6,2.3,6.4,7.4,6.4c4.8,0,9.1-2.3,10.5-5.9h3.4v-1.2H22.4z"/>
</g>
<path d="M35.2,19.7c-0.9-0.3-1.3-0.7-1.3-1.4c0-0.9,0.9-1.4,1.8-1.4c0.9,0,1.5,0.4,1.9,1l0.5-0.2c-0.5-1.1-1.6-1.3-2.4-1.3
	c-1.4,0-2.3,0.8-2.3,1.9c0,0.9,0.5,1.5,1.6,1.8l1.5,0.4c0.6,0.2,1.2,0.5,1.2,1.5c0,0.9-0.8,1.5-2,1.5c-1.1,0-1.9-0.5-2.2-1.4
	l-0.5,0.2c0.3,1.1,1.3,1.7,2.7,1.7c1.5,0,2.5-0.8,2.5-2.1c0-1-0.5-1.6-1.5-1.9L35.2,19.7z"/>
<path d="M41.5,16.6h-2.5v7.5h0.6v-3h1.8c1.5,0,2.5-0.9,2.5-2.2C43.8,17.5,42.9,16.6,41.5,16.6z M41.1,20.5h-1.7v-3.5h1.9
	c1.1,0,1.9,0.7,1.9,1.7C43.2,19.9,42.5,20.5,41.1,20.5z"/>
<path d="M45.9,16.6l-2.8,7.5h0.6l0.9-2.4h3.2l0,0l0.8,2.4h0.6l-2.7-7.5H45.9z M44.7,21.2L44.7,21.2l1.5-4.1l1.4,4.1H44.7z"/>
<rect x="49.9" y="16.6" width="0.5" height="7.5"/>
<polygon points="51.9,16.6 51.3,16.6 51.3,24.1 51.9,24.1 51.9,17.4 56.1,24.1 56.7,24.1 56.7,16.6 56.2,16.6 56.2,23.1 "/>
</svg>
