<?xml version="1.0" encoding="utf-8"?>
<!-- Generator: Adobe Illustrator 17.1.0, SVG Export Plug-In . SVG Version: 6.00 Build 0)  -->
<!DOCTYPE svg PUBLIC "-//W3C//DTD SVG 1.1//EN" "http://www.w3.org/Graphics/SVG/1.1/DTD/svg11.dtd">
<svg version="1.1" id="Capa_1" xmlns="http://www.w3.org/2000/svg" xmlns:xlink="http://www.w3.org/1999/xlink" x="0px" y="0px"
	 viewBox="0 0 263.767 59.407" enable-background="new 0 0 263.767 59.407" xml:space="preserve">
<g>
	<defs>
		<rect id="SVGID_1_" width="263.767" height="59.407"/>
	</defs>
	<clipPath id="SVGID_2_">
		<use xlink:href="#SVGID_1_"  overflow="visible"/>
	</clipPath>
	<g clip-path="url(#SVGID_2_)">
		<defs>
			<rect id="SVGID_3_" width="263.767" height="58.956"/>
		</defs>
		<clipPath id="SVGID_4_">
			<use xlink:href="#SVGID_3_"  overflow="visible"/>
		</clipPath>
		<path clip-path="url(#SVGID_4_)" fill="#0FDDC4" d="M26.329,43.628c6.58,4.316,15.415,2.484,19.733-4.093
			c1.525-2.323,2.337-5.039,2.337-7.816l-0.711-14.57c-0.103-1.79-1.636-3.155-3.426-3.053c-1.717,0.098-3.059,1.52-3.059,3.238
			l-0.851,14.634c-0.126,3.059-2.511,5.541-5.561,5.794c-3.34,0.278-6.271-2.203-6.547-5.542l-1.009-10.796
			c0-1.635-1.326-2.962-2.963-2.962c-1.636,0-2.963,1.326-2.963,2.962L20.3,32.22c-0.254,3.048-2.739,5.432-5.798,5.559
			c-3.348,0.138-6.174-2.464-6.312-5.811L7.339,17.334c0-1.791-1.453-3.244-3.246-3.244c-1.72,0-3.141,1.342-3.24,3.059
			L0.095,30.091c-0.9,7.816,4.709,14.878,12.528,15.78c3.315,0.38,6.659-0.412,9.449-2.243l-0.015,0.003
			c1.249-0.918,3.003-0.918,4.253,0"/>
		<path clip-path="url(#SVGID_4_)" fill="#0FDDC4" d="M177.518,38.902c-4.592,0-8.313-3.719-8.313-8.308
			c0-4.588,3.722-8.31,8.313-8.31c4.592,0,8.315,3.723,8.315,8.31C185.833,35.183,182.11,38.902,177.518,38.902 M139.249,38.902
			c-4.59,0-8.314-3.719-8.314-8.308c0-4.588,3.724-8.31,8.314-8.31c4.591,0,8.312,3.723,8.312,8.31
			C147.561,35.183,143.84,38.902,139.249,38.902 M68.602,38.902c-4.592,0-8.314-3.719-8.314-8.308c0-4.588,3.723-8.31,8.314-8.31
			c4.592,0,8.313,3.723,8.313,8.31C76.915,35.183,73.194,38.902,68.602,38.902 M182.529,15.501
			c-8.338-2.766-17.342,1.75-20.109,10.085c-0.646,1.94-0.85,3.871-0.781,6.029l-0.032,4.28c-0.13,1.751-1.218,2.721-2.724,2.721
			c-1.503,0-2.483-1.203-2.722-2.769l-1.095-6.962c-0.943-8.729-8.792-15.043-17.529-14.101
			c-8.732,0.944-15.051,8.787-14.108,17.518c0.105,0.962,0.243,1.934,0.52,2.861l0.03,0.137c0.11,0.502,0.146,1.023,0.051,1.527
			c-0.379,2.008-2.152,2.385-3.551,2.354c-2.35-0.053-3.646-1.755-3.827-4.015L115.44,3.242c-0.03-1.819-1.529-3.271-3.351-3.242
			c-1.798,0.029-3.241,1.496-3.241,3.295l-1.149,31.309c0,0.096-0.003,0.191-0.009,0.287c-0.159,2.29-1.509,3.858-3.789,3.858
			c-2.295,0-3.633-2.209-3.622-4.431h-0.011L99.121,3.295C99.121,1.477,97.646,0,95.825,0c-1.819,0-3.296,1.477-3.296,3.295
			l-1.146,32.601l-0.005,0.147c0.005,1.403-1.575,2.704-2.941,2.704c-1.505,0-2.855-0.94-3.052-2.437l-0.013-0.127l-1.004-7.738
			l0.051,0.441c-0.943-8.729-8.79-15.043-17.526-14.101c-8.737,0.944-15.053,8.787-14.11,17.518
			c0.944,8.733,8.79,15.047,17.526,14.102c2.867-0.309,5.594-1.392,7.895-3.131h-0.007c1.219-0.907,2.432-0.517,3.174,0.342
			c2.999,3.474,8.668,3.86,12.144,0.862c0.111-0.096,0.222-0.195,0.328-0.297c1.409-1.442,3.517-1.367,4.823,0
			c3.219,3.088,7.743,3.088,10.961,0c1.409-1.442,3.517-1.367,4.824,0c3.236,3.107,9.908,3.085,13.119-0.047
			c0.741-0.859,1.671-1.191,2.892-0.283c5.377,3.561,12.373,3.524,17.714-0.094c1.599-1.13,3.297-0.72,4.351,0.413
			c1.724,1.575,4.247,1.917,6.327,0.851l0.059-0.028c0.18-0.094,0.377-0.158,0.579-0.197c1.167-0.219,2.413,0.461,2.546,1.781
			l0.571,9.535c0.001,1.818,1.476,3.294,3.299,3.294c1.82,0,3.295-1.476,3.295-3.296l0.429-8.325
			c0.11-1.857,1.649-2.492,2.872-2.098c8.341,2.767,17.346-1.748,20.112-10.084C195.386,27.268,190.868,18.268,182.529,15.501"/>
		<path clip-path="url(#SVGID_4_)" fill="#0FDDC4" d="M212.42,38.265c-4.593,0-8.314-3.719-8.314-8.308
			c0-4.587,3.721-8.31,8.314-8.31c4.59,0,8.312,3.723,8.312,8.31C220.732,34.546,217.01,38.265,212.42,38.265 M212.42,14.056
			c-8.788,0-15.912,7.118-15.912,15.901c0,8.782,7.123,15.902,15.912,15.902c8.786,0,15.909-7.121,15.909-15.902
			C228.329,21.174,221.206,14.056,212.42,14.056"/>
		<path clip-path="url(#SVGID_4_)" fill="#0FDDC4" d="M247.853,38.265c-4.591,0-8.312-3.719-8.312-8.308
			c0-4.588,3.721-8.31,8.312-8.31c4.589,0,8.314,3.723,8.314,8.31C256.167,34.546,252.442,38.265,247.853,38.265 M252.862,14.864
			c-8.339-2.766-17.341,1.75-20.111,10.085c-0.645,1.94-0.908,3.988-0.776,6.029l-0.033-0.018l0.861,24.515
			c0,1.818,1.476,3.294,3.297,3.294c1.819,0,3.181-1.399,3.296-3.296v0.002l0.428-8.327c0.128-1.876,1.889-2.471,3.016-2.098
			c8.34,2.767,17.343-1.748,20.111-10.084C265.72,26.631,261.203,17.631,252.862,14.864"/>
	</g>
</g>
</svg>
